<?xml version="1.0" encoding="utf-8"?>
<!-- Generator: Adobe Illustrator 23.1.1, SVG Export Plug-In . SVG Version: 6.00 Build 0)  -->
<svg version="1.1" id="Lager_1" xmlns="http://www.w3.org/2000/svg" xmlns:xlink="http://www.w3.org/1999/xlink" x="0px" y="0px"
	 viewBox="0 0 375 815" style="enable-background:new 0 0 375 815;" xml:space="preserve">
<style type="text/css">
	.st0{fill:#F9CBC3;stroke:#000000;stroke-miterlimit:10;}
	.st1{opacity:0.2;}
	.st2{fill:#EB5D33;}
</style>
<rect x="-7.8" y="-9.9" class="st0" width="389" height="835.4"/>
<g class="st1">
	<path class="st2" d="M-49.9,555.8c-51,0-97.1-10.2-138.2-30.6c-41.1-20.4-73.1-48.3-95.9-83.7l100.8-83.7
		c15.6,24,35.8,42.6,60.8,55.8c24.9,13.2,50.5,19.8,77,19.8c25.8,0,46.6-5.7,62.5-17.1C33,404.9,41,389.9,41,371.3
		c0-18-7.1-33.6-21.1-46.8c-14.1-13.2-37.1-25.2-68.9-36l-54-18.9c-51.6-18-90.8-42-117.4-72c-26.7-30-40.1-66.9-40.1-110.7
		c0-30,5.4-56.8,16.2-80.5c10.8-23.7,25.8-43.8,45-60.3c19.2-16.5,42-29.1,68.4-37.8c26.4-8.7,55.2-13,86.4-13
		c39.6,0,76.2,7.1,109.8,21.1c33.6,14.1,64.5,36.4,92.7,67L70.7,72.5c-15-18.6-32.3-32.4-51.8-41.4c-19.5-9-40-13.5-61.7-13.5
		c-10.8,0-21.5,1.2-31.9,3.6c-10.5,2.4-19.7,6-27.5,10.8c-7.8,4.8-14.1,10.7-18.9,17.5c-4.8,6.9-7.2,15.2-7.2,24.8
		c0,19.2,7.8,34.4,23.4,45.5c15.6,11.1,40.5,22.7,74.7,34.6l51.3,18.9c46.8,17.4,84,41.3,111.6,71.5c27.6,30.3,41.1,69.8,40.5,118.4
		c0,28.8-5.6,54.9-16.6,78.3c-11.1,23.4-26.4,43.7-45.9,60.8c-19.5,17.1-42.9,30.3-70.2,39.6C13.2,551.1-16.9,555.8-49.9,555.8z"/>
</g>
<g class="st1">
	<path class="st2" d="M467.8,559.3c-25.2,0-48.5-3.3-69.7-9.9c-21.3-6.6-39.8-16.7-55.4-30.2c-15.6-13.5-27.8-30.4-36.5-50.8
		c-8.7-20.4-13-44.4-13-72V211.9H184.3v-108h108.9v-135h123.3v135h135.9v108H416.5v160.2c0,27.6,5.7,47.1,17.1,58.5
		c11.4,11.4,28.5,17.1,51.3,17.1c12,0,23.7-1.6,35.1-5c11.4-3.3,20.4-6.8,27-10.3l36.9,100.8c-10.8,6-27.2,11.9-49,17.5
		C512.9,556.4,490.6,559.3,467.8,559.3z"/>
</g>
<g class="st1">
	<path class="st2" d="M181.5,1043c-32.4,0-63-6-91.8-18c-28.8-12-54-28.6-75.6-50c-21.6-21.3-38.6-46.2-50.9-74.7
		c-12.3-28.5-18.4-59.2-18.4-92.2c0-33,6.1-63.7,18.4-92.2c12.3-28.5,29.2-53.2,50.9-74.2c21.6-21,46.8-37.6,75.6-50
		c28.8-12.3,59.4-18.5,91.8-18.5c32.4,0,63,6.2,91.8,18.5c28.8,12.3,54,29,75.6,50c21.6,21,38.5,45.8,50.9,74.2
		c12.3,28.5,18.4,59.3,18.4,92.2c0,33-6.2,63.8-18.4,92.2c-12.3,28.5-29.2,53.4-50.9,74.7c-21.6,21.3-46.8,38-75.6,50
		C244.5,1037,213.9,1043,181.5,1043z M181.5,927.8c16.2,0,31-3,44.5-9c13.5-6,25.2-14.2,35.1-24.8c9.9-10.5,17.7-23.1,23.4-37.8
		c5.7-14.7,8.5-30.7,8.5-48.1c0-17.4-2.9-33.4-8.5-48.2c-5.7-14.7-13.5-27.3-23.4-37.8c-9.9-10.5-21.6-18.7-35.1-24.8
		c-13.5-6-28.4-9-44.5-9c-16.2,0-31.2,3-45,9c-13.8,6-25.7,14.3-35.6,24.8c-9.9,10.5-17.7,23.1-23.4,37.8
		c-5.7,14.7-8.5,30.8-8.5,48.2c0,17.4,2.8,33.5,8.5,48.1c5.7,14.7,13.5,27.3,23.4,37.8c9.9,10.5,21.7,18.8,35.6,24.8
		C150.3,924.8,165.3,927.8,181.5,927.8z"/>
</g>
</svg>
