<?xml version="1.0" encoding="utf-8"?>
<!-- Generator: Adobe Illustrator 23.1.1, SVG Export Plug-In . SVG Version: 6.00 Build 0)  -->
<svg version="1.1" id="Lager_1" xmlns="http://www.w3.org/2000/svg" xmlns:xlink="http://www.w3.org/1999/xlink" x="0px" y="0px"
	 viewBox="0 0 841.9 1190.6" style="enable-background:new 0 0 841.9 1190.6;" xml:space="preserve">
<style type="text/css">
	.st0{fill:#F9CBC3;}
</style>
<path class="st0" d="M894.6,1267.5c-304.6,3.7-609.2,7.3-913.9,11c-0.2-237.7-0.5-475.3-0.7-713c17.4-23.7,46-57.1,89.1-87
	c35.7-24.7,95.4-66.2,172-62.8c82.7,3.7,154.8,58.2,178.8,76.4c13.2,10,29.5,23.8,57.3,38.9c21.5,11.6,56.9,30.9,92.8,34.4
	c77.7,7.7,104.9-63.6,192.5-68.5c37.5-2.1,68.9,8.9,89.7,18.6l25.7,9.1C883.4,772.3,889,1019.9,894.6,1267.5z"/>
<path class="st0" d="M-137,81.6"/>
</svg>
