<?xml version="1.0" standalone="no"?><svg xmlns="http://www.w3.org/2000/svg" viewBox="0 0 1440 320"><path fill="#FFCCC2" fill-opacity="1" d="M0,128L40,117.3C80,107,160,85,240,101.3C320,117,400,171,480,176C560,181,640,139,720,106.7C800,75,880,53,960,53.3C1040,53,1120,75,1200,101.3C1280,128,1360,160,1400,176L1440,192L1440,320L1400,320C1360,320,1280,320,1200,320C1120,320,1040,320,960,320C880,320,800,320,720,320C640,320,560,320,480,320C400,320,320,320,240,320C160,320,80,320,40,320L0,320Z"></path></svg>